# xmcd
#
# Track frame offsets: 
#        150
#        18821
#        36099
#        52160
#        69712
#        84988
#        108032
#        124808
#        141623
#        163704
#        181698
#        195880
#        212860
#
# Disc length: 3172 seconds
#
# Revision: 0
# Processed by: cddbd v1.5.2PL0 Copyright (c) Steve Scherf et al.
# Submitted via: ExactAudioCopy v0.95a5
#
DISCID=af0c620d
DTITLE=Beale Street - Vibratto
DYEAR=1900
DGENRE=Blues
TTITLE0=Help me
TTITLE1=Born under a bad sign
TTITLE2=Distorção
TTITLE3=Campos de algodão
TTITLE4=Bright lights big city
TTITLE5=Love, life and money
TTITLE6=Primavera em Ipanema
TTITLE7=Mama don't
TTITLE8=Há sempre um blues
TTITLE9=15 graus em Bangu
TTITLE10=O parceiro
TTITLE11=Rock me baby
TTITLE12=The weight
EXTD=
EXTT0=
EXTT1=
EXTT2=
EXTT3=
EXTT4=
EXTT5=
EXTT6=
EXTT7=
EXTT8=
EXTT9=
EXTT10=
EXTT11=
EXTT12=
PLAYORDER=
